<mxfile host="65bd71144e">
    <diagram id="ZQF833xw1EoGUe7-4v3m" name="Page-1">
        <mxGraphModel dx="1774" dy="801" grid="1" gridSize="10" guides="1" tooltips="1" connect="1" arrows="1" fold="1" page="1" pageScale="1" pageWidth="850" pageHeight="1100" math="0" shadow="0">
            <root>
                <mxCell id="0"/>
                <mxCell id="1" parent="0"/>
                <mxCell id="106" style="edgeStyle=none;html=1;exitX=1;exitY=0.5;exitDx=0;exitDy=0;entryX=0;entryY=0.5;entryDx=0;entryDy=0;fontSize=36;" parent="1" source="94" target="102" edge="1">
                    <mxGeometry relative="1" as="geometry"/>
                </mxCell>
                <mxCell id="94" value="" style="rounded=1;whiteSpace=wrap;html=1;container=1;collapsible=0;absoluteArcSize=1;arcSize=20;childLayout=stackLayout;horizontal=1;horizontalStack=0;resizeParent=1;resizeParentMax=0;resizeLast=0;" parent="1" vertex="1">
                    <mxGeometry x="130" y="195" width="120" height="100" as="geometry"/>
                </mxCell>
                <mxCell id="95" value="Passenger" style="whiteSpace=wrap;connectable=0;html=1;shape=mxgraph.basic.rect;size=10;rectStyle=rounded;bottomRightStyle=square;bottomLeftStyle=square;part=1;" parent="94" vertex="1">
                    <mxGeometry width="120" height="20" as="geometry"/>
                </mxCell>
                <mxCell id="96" value="Select route" style="shape=mxgraph.bpmn.task;part=1;taskMarker=abstract;connectable=0;whiteSpace=wrap;html=1;" parent="94" vertex="1">
                    <mxGeometry y="20" width="120" height="60" as="geometry"/>
                </mxCell>
                <mxCell id="97" value="Ticket machine" style="whiteSpace=wrap;connectable=0;html=1;shape=mxgraph.basic.rect;size=10;rectStyle=rounded;topRightStyle=square;topLeftStyle=square;fillColor=#C0C0C0;part=1;" parent="94" vertex="1">
                    <mxGeometry y="80" width="120" height="20" as="geometry"/>
                </mxCell>
                <mxCell id="127" style="edgeStyle=orthogonalEdgeStyle;html=1;exitX=1;exitY=0.5;exitDx=0;exitDy=0;entryX=0.5;entryY=1;entryDx=0;entryDy=0;fontSize=36;" parent="1" source="98" target="123" edge="1">
                    <mxGeometry relative="1" as="geometry"/>
                </mxCell>
                <mxCell id="132" style="edgeStyle=orthogonalEdgeStyle;html=1;exitX=0.5;exitY=1;exitDx=0;exitDy=0;fontSize=36;" parent="1" edge="1">
                    <mxGeometry relative="1" as="geometry">
                        <mxPoint x="1084.5" y="270" as="sourcePoint"/>
                        <mxPoint x="1084.5" y="340" as="targetPoint"/>
                        <Array as="points">
                            <mxPoint x="1084.5" y="300"/>
                            <mxPoint x="1084.5" y="300"/>
                        </Array>
                    </mxGeometry>
                </mxCell>
                <mxCell id="98" value="&lt;font style=&quot;font-size: 36px;&quot;&gt;&lt;b style=&quot;&quot;&gt;X&lt;/b&gt;&lt;/font&gt;" style="rhombus;whiteSpace=wrap;html=1;" parent="1" vertex="1">
                    <mxGeometry x="1060" y="220" width="50" height="50" as="geometry"/>
                </mxCell>
                <mxCell id="100" style="edgeStyle=none;html=1;exitX=1;exitY=0.5;exitDx=0;exitDy=0;entryX=0;entryY=0.5;entryDx=0;entryDy=0;fontSize=36;" parent="1" source="99" target="94" edge="1">
                    <mxGeometry relative="1" as="geometry"/>
                </mxCell>
                <mxCell id="99" value="" style="ellipse;whiteSpace=wrap;html=1;aspect=fixed;fontSize=36;" parent="1" vertex="1">
                    <mxGeometry x="20" y="220" width="50" height="50" as="geometry"/>
                </mxCell>
                <mxCell id="508" style="edgeStyle=none;html=1;exitX=1;exitY=0.5;exitDx=0;exitDy=0;entryX=0;entryY=0.5;entryDx=0;entryDy=0;" edge="1" parent="1" source="102" target="160">
                    <mxGeometry relative="1" as="geometry"/>
                </mxCell>
                <mxCell id="102" value="" style="rounded=1;whiteSpace=wrap;html=1;container=1;collapsible=0;absoluteArcSize=1;arcSize=20;childLayout=stackLayout;horizontal=1;horizontalStack=0;resizeParent=1;resizeParentMax=0;resizeLast=0;" parent="1" vertex="1">
                    <mxGeometry x="310" y="195" width="120" height="100" as="geometry"/>
                </mxCell>
                <mxCell id="103" value="Ticket machine" style="whiteSpace=wrap;connectable=0;html=1;shape=mxgraph.basic.rect;size=10;rectStyle=rounded;bottomRightStyle=square;bottomLeftStyle=square;part=1;" parent="102" vertex="1">
                    <mxGeometry width="120" height="20" as="geometry"/>
                </mxCell>
                <mxCell id="104" value="Display route and price, ask for payment methods" style="shape=mxgraph.bpmn.task;part=1;taskMarker=abstract;connectable=0;whiteSpace=wrap;html=1;" parent="102" vertex="1">
                    <mxGeometry y="20" width="120" height="60" as="geometry"/>
                </mxCell>
                <mxCell id="105" value="Passenger" style="whiteSpace=wrap;connectable=0;html=1;shape=mxgraph.basic.rect;size=10;rectStyle=rounded;topRightStyle=square;topLeftStyle=square;fillColor=#C0C0C0;part=1;" parent="102" vertex="1">
                    <mxGeometry y="80" width="120" height="20" as="geometry"/>
                </mxCell>
                <mxCell id="107" value="" style="rounded=1;whiteSpace=wrap;html=1;container=1;collapsible=0;absoluteArcSize=1;arcSize=20;childLayout=stackLayout;horizontal=1;horizontalStack=0;resizeParent=1;resizeParentMax=0;resizeLast=0;" parent="1" vertex="1">
                    <mxGeometry x="524" y="195" width="120" height="100" as="geometry"/>
                </mxCell>
                <mxCell id="108" value="Passenger" style="whiteSpace=wrap;connectable=0;html=1;shape=mxgraph.basic.rect;size=10;rectStyle=rounded;bottomRightStyle=square;bottomLeftStyle=square;part=1;" parent="107" vertex="1">
                    <mxGeometry width="120" height="20" as="geometry"/>
                </mxCell>
                <mxCell id="109" value="Choose payment method and try to pay" style="shape=mxgraph.bpmn.task;part=1;taskMarker=abstract;connectable=0;whiteSpace=wrap;html=1;" parent="107" vertex="1">
                    <mxGeometry y="20" width="120" height="60" as="geometry"/>
                </mxCell>
                <mxCell id="110" value="Ticket machine" style="whiteSpace=wrap;connectable=0;html=1;shape=mxgraph.basic.rect;size=10;rectStyle=rounded;topRightStyle=square;topLeftStyle=square;fillColor=#C0C0C0;part=1;" parent="107" vertex="1">
                    <mxGeometry y="80" width="120" height="20" as="geometry"/>
                </mxCell>
                <mxCell id="112" style="edgeStyle=none;html=1;exitX=1;exitY=0.5;exitDx=0;exitDy=0;fontSize=36;" parent="1" source="107" edge="1">
                    <mxGeometry relative="1" as="geometry">
                        <mxPoint x="664" y="245" as="sourcePoint"/>
                        <mxPoint x="704" y="245" as="targetPoint"/>
                    </mxGeometry>
                </mxCell>
                <mxCell id="121" style="edgeStyle=none;html=1;exitX=1;exitY=0.5;exitDx=0;exitDy=0;fontSize=36;" parent="1" source="113" edge="1">
                    <mxGeometry relative="1" as="geometry">
                        <mxPoint x="884" y="245" as="targetPoint"/>
                    </mxGeometry>
                </mxCell>
                <mxCell id="113" value="" style="rounded=1;whiteSpace=wrap;html=1;container=1;collapsible=0;absoluteArcSize=1;arcSize=20;childLayout=stackLayout;horizontal=1;horizontalStack=0;resizeParent=1;resizeParentMax=0;resizeLast=0;" parent="1" vertex="1">
                    <mxGeometry x="704" y="195" width="120" height="100" as="geometry"/>
                </mxCell>
                <mxCell id="114" value="Ticket machine" style="whiteSpace=wrap;connectable=0;html=1;shape=mxgraph.basic.rect;size=10;rectStyle=rounded;bottomRightStyle=square;bottomLeftStyle=square;part=1;" parent="113" vertex="1">
                    <mxGeometry width="120" height="20" as="geometry"/>
                </mxCell>
                <mxCell id="115" value="Payment request" style="shape=mxgraph.bpmn.task;part=1;taskMarker=abstract;connectable=0;whiteSpace=wrap;html=1;" parent="113" vertex="1">
                    <mxGeometry y="20" width="120" height="60" as="geometry"/>
                </mxCell>
                <mxCell id="116" value="Payments module" style="whiteSpace=wrap;connectable=0;html=1;shape=mxgraph.basic.rect;size=10;rectStyle=rounded;topRightStyle=square;topLeftStyle=square;fillColor=#C0C0C0;part=1;" parent="113" vertex="1">
                    <mxGeometry y="80" width="120" height="20" as="geometry"/>
                </mxCell>
                <mxCell id="122" style="edgeStyle=none;html=1;exitX=1;exitY=0.5;exitDx=0;exitDy=0;entryX=0;entryY=0.5;entryDx=0;entryDy=0;fontSize=36;" parent="1" source="117" edge="1">
                    <mxGeometry relative="1" as="geometry">
                        <mxPoint x="1064" y="245" as="targetPoint"/>
                    </mxGeometry>
                </mxCell>
                <mxCell id="117" value="" style="rounded=1;whiteSpace=wrap;html=1;container=1;collapsible=0;absoluteArcSize=1;arcSize=20;childLayout=stackLayout;horizontal=1;horizontalStack=0;resizeParent=1;resizeParentMax=0;resizeLast=0;" parent="1" vertex="1">
                    <mxGeometry x="884" y="195" width="120" height="100" as="geometry"/>
                </mxCell>
                <mxCell id="118" value="Payment module" style="whiteSpace=wrap;connectable=0;html=1;shape=mxgraph.basic.rect;size=10;rectStyle=rounded;bottomRightStyle=square;bottomLeftStyle=square;part=1;" parent="117" vertex="1">
                    <mxGeometry width="120" height="20" as="geometry"/>
                </mxCell>
                <mxCell id="119" value="Asks authorization" style="shape=mxgraph.bpmn.task;part=1;taskMarker=abstract;connectable=0;whiteSpace=wrap;html=1;" parent="117" vertex="1">
                    <mxGeometry y="20" width="120" height="60" as="geometry"/>
                </mxCell>
                <mxCell id="120" value="Bank" style="whiteSpace=wrap;connectable=0;html=1;shape=mxgraph.basic.rect;size=10;rectStyle=rounded;topRightStyle=square;topLeftStyle=square;fillColor=#C0C0C0;part=1;" parent="117" vertex="1">
                    <mxGeometry y="80" width="120" height="20" as="geometry"/>
                </mxCell>
                <mxCell id="170" style="edgeStyle=orthogonalEdgeStyle;html=1;exitX=0;exitY=0.5;exitDx=0;exitDy=0;entryX=1;entryY=0.5;entryDx=0;entryDy=0;fontSize=36;" parent="1" source="123" target="161" edge="1">
                    <mxGeometry relative="1" as="geometry"/>
                </mxCell>
                <mxCell id="123" value="" style="rounded=1;whiteSpace=wrap;html=1;container=1;collapsible=0;absoluteArcSize=1;arcSize=20;childLayout=stackLayout;horizontal=1;horizontalStack=0;resizeParent=1;resizeParentMax=0;resizeLast=0;" parent="1" vertex="1">
                    <mxGeometry x="1090" y="70" width="120" height="100" as="geometry"/>
                </mxCell>
                <mxCell id="124" value="Bank" style="whiteSpace=wrap;connectable=0;html=1;shape=mxgraph.basic.rect;size=10;rectStyle=rounded;bottomRightStyle=square;bottomLeftStyle=square;part=1;" parent="123" vertex="1">
                    <mxGeometry width="120" height="20" as="geometry"/>
                </mxCell>
                <mxCell id="125" value="Denies authorization" style="shape=mxgraph.bpmn.task;part=1;taskMarker=abstract;connectable=0;whiteSpace=wrap;html=1;" parent="123" vertex="1">
                    <mxGeometry y="20" width="120" height="60" as="geometry"/>
                </mxCell>
                <mxCell id="126" value="Payment module" style="whiteSpace=wrap;connectable=0;html=1;shape=mxgraph.basic.rect;size=10;rectStyle=rounded;topRightStyle=square;topLeftStyle=square;fillColor=#C0C0C0;part=1;" parent="123" vertex="1">
                    <mxGeometry y="80" width="120" height="20" as="geometry"/>
                </mxCell>
                <mxCell id="149" style="edgeStyle=orthogonalEdgeStyle;html=1;exitX=1;exitY=0.5;exitDx=0;exitDy=0;entryX=0;entryY=0.5;entryDx=0;entryDy=0;fontSize=36;" parent="1" source="128" target="141" edge="1">
                    <mxGeometry relative="1" as="geometry">
                        <mxPoint x="1195" y="390" as="targetPoint"/>
                    </mxGeometry>
                </mxCell>
                <mxCell id="128" value="" style="rounded=1;whiteSpace=wrap;html=1;container=1;collapsible=0;absoluteArcSize=1;arcSize=20;childLayout=stackLayout;horizontal=1;horizontalStack=0;resizeParent=1;resizeParentMax=0;resizeLast=0;" parent="1" vertex="1">
                    <mxGeometry x="1020" y="340" width="120" height="100" as="geometry"/>
                </mxCell>
                <mxCell id="129" value="Bank" style="whiteSpace=wrap;connectable=0;html=1;shape=mxgraph.basic.rect;size=10;rectStyle=rounded;bottomRightStyle=square;bottomLeftStyle=square;part=1;" parent="128" vertex="1">
                    <mxGeometry width="120" height="20" as="geometry"/>
                </mxCell>
                <mxCell id="130" value="Gives authorization" style="shape=mxgraph.bpmn.task;part=1;taskMarker=abstract;connectable=0;whiteSpace=wrap;html=1;" parent="128" vertex="1">
                    <mxGeometry y="20" width="120" height="60" as="geometry"/>
                </mxCell>
                <mxCell id="131" value="Payment module" style="whiteSpace=wrap;connectable=0;html=1;shape=mxgraph.basic.rect;size=10;rectStyle=rounded;topRightStyle=square;topLeftStyle=square;fillColor=#C0C0C0;part=1;" parent="128" vertex="1">
                    <mxGeometry y="80" width="120" height="20" as="geometry"/>
                </mxCell>
                <mxCell id="152" style="edgeStyle=orthogonalEdgeStyle;html=1;exitX=1;exitY=0.5;exitDx=0;exitDy=0;entryX=0;entryY=0.5;entryDx=0;entryDy=0;fontSize=36;" parent="1" source="141" target="145" edge="1">
                    <mxGeometry relative="1" as="geometry"/>
                </mxCell>
                <mxCell id="141" value="" style="rounded=1;whiteSpace=wrap;html=1;container=1;collapsible=0;absoluteArcSize=1;arcSize=20;childLayout=stackLayout;horizontal=1;horizontalStack=0;resizeParent=1;resizeParentMax=0;resizeLast=0;" parent="1" vertex="1">
                    <mxGeometry x="1190" y="340" width="120" height="100" as="geometry"/>
                </mxCell>
                <mxCell id="142" value="Payment module" style="whiteSpace=wrap;connectable=0;html=1;shape=mxgraph.basic.rect;size=10;rectStyle=rounded;bottomRightStyle=square;bottomLeftStyle=square;part=1;" parent="141" vertex="1">
                    <mxGeometry width="120" height="20" as="geometry"/>
                </mxCell>
                <mxCell id="143" value="Send confirmation" style="shape=mxgraph.bpmn.task;part=1;taskMarker=abstract;connectable=0;whiteSpace=wrap;html=1;" parent="141" vertex="1">
                    <mxGeometry y="20" width="120" height="60" as="geometry"/>
                </mxCell>
                <mxCell id="144" value="Ticket machine" style="whiteSpace=wrap;connectable=0;html=1;shape=mxgraph.basic.rect;size=10;rectStyle=rounded;topRightStyle=square;topLeftStyle=square;fillColor=#C0C0C0;part=1;" parent="141" vertex="1">
                    <mxGeometry y="80" width="120" height="20" as="geometry"/>
                </mxCell>
                <mxCell id="153" style="edgeStyle=orthogonalEdgeStyle;html=1;exitX=1;exitY=0.5;exitDx=0;exitDy=0;fontSize=36;entryX=0;entryY=0.5;entryDx=0;entryDy=0;entryPerimeter=0;" parent="1" source="145" target="158" edge="1">
                    <mxGeometry relative="1" as="geometry">
                        <mxPoint x="1495" y="390" as="targetPoint"/>
                    </mxGeometry>
                </mxCell>
                <mxCell id="145" value="" style="rounded=1;whiteSpace=wrap;html=1;container=1;collapsible=0;absoluteArcSize=1;arcSize=20;childLayout=stackLayout;horizontal=1;horizontalStack=0;resizeParent=1;resizeParentMax=0;resizeLast=0;" parent="1" vertex="1">
                    <mxGeometry x="1340" y="340" width="120" height="100" as="geometry"/>
                </mxCell>
                <mxCell id="146" value="Ticket machine" style="whiteSpace=wrap;connectable=0;html=1;shape=mxgraph.basic.rect;size=10;rectStyle=rounded;bottomRightStyle=square;bottomLeftStyle=square;part=1;" parent="145" vertex="1">
                    <mxGeometry width="120" height="20" as="geometry"/>
                </mxCell>
                <mxCell id="147" value="Display confirmation, print ticket" style="shape=mxgraph.bpmn.task;part=1;taskMarker=abstract;connectable=0;whiteSpace=wrap;html=1;" parent="145" vertex="1">
                    <mxGeometry y="20" width="120" height="60" as="geometry"/>
                </mxCell>
                <mxCell id="148" value="Passenger" style="whiteSpace=wrap;connectable=0;html=1;shape=mxgraph.basic.rect;size=10;rectStyle=rounded;topRightStyle=square;topLeftStyle=square;fillColor=#C0C0C0;part=1;" parent="145" vertex="1">
                    <mxGeometry y="80" width="120" height="20" as="geometry"/>
                </mxCell>
                <mxCell id="158" value="" style="html=1;verticalLabelPosition=bottom;labelBackgroundColor=#ffffff;verticalAlign=top;shadow=0;dashed=0;strokeWidth=2;shape=mxgraph.ios7.misc.circle;strokeColor=#222222;fillColor=none;fontSize=36;" parent="1" vertex="1">
                    <mxGeometry x="1525" y="367.5" width="45" height="45" as="geometry"/>
                </mxCell>
                <mxCell id="509" style="edgeStyle=none;html=1;exitX=1;exitY=0.5;exitDx=0;exitDy=0;entryX=0;entryY=0.5;entryDx=0;entryDy=0;" edge="1" parent="1" source="160" target="107">
                    <mxGeometry relative="1" as="geometry"/>
                </mxCell>
                <mxCell id="160" value="&lt;font style=&quot;font-size: 36px;&quot;&gt;&lt;b style=&quot;&quot;&gt;X&lt;/b&gt;&lt;/font&gt;" style="rhombus;whiteSpace=wrap;html=1;" parent="1" vertex="1">
                    <mxGeometry x="450" y="220" width="50" height="50" as="geometry"/>
                </mxCell>
                <mxCell id="169" style="edgeStyle=orthogonalEdgeStyle;html=1;exitX=0;exitY=0.5;exitDx=0;exitDy=0;entryX=1;entryY=0.5;entryDx=0;entryDy=0;fontSize=36;" parent="1" source="161" target="165" edge="1">
                    <mxGeometry relative="1" as="geometry"/>
                </mxCell>
                <mxCell id="161" value="" style="rounded=1;whiteSpace=wrap;html=1;container=1;collapsible=0;absoluteArcSize=1;arcSize=20;childLayout=stackLayout;horizontal=1;horizontalStack=0;resizeParent=1;resizeParentMax=0;resizeLast=0;" parent="1" vertex="1">
                    <mxGeometry x="880" y="70" width="120" height="100" as="geometry"/>
                </mxCell>
                <mxCell id="162" value="Payment module" style="whiteSpace=wrap;connectable=0;html=1;shape=mxgraph.basic.rect;size=10;rectStyle=rounded;bottomRightStyle=square;bottomLeftStyle=square;part=1;" parent="161" vertex="1">
                    <mxGeometry width="120" height="20" as="geometry"/>
                </mxCell>
                <mxCell id="163" value="Denies authorization" style="shape=mxgraph.bpmn.task;part=1;taskMarker=abstract;connectable=0;whiteSpace=wrap;html=1;" parent="161" vertex="1">
                    <mxGeometry y="20" width="120" height="60" as="geometry"/>
                </mxCell>
                <mxCell id="164" value="Terminal" style="whiteSpace=wrap;connectable=0;html=1;shape=mxgraph.basic.rect;size=10;rectStyle=rounded;topRightStyle=square;topLeftStyle=square;fillColor=#C0C0C0;part=1;" parent="161" vertex="1">
                    <mxGeometry y="80" width="120" height="20" as="geometry"/>
                </mxCell>
                <mxCell id="171" style="edgeStyle=orthogonalEdgeStyle;html=1;exitX=0;exitY=0.5;exitDx=0;exitDy=0;entryX=0.5;entryY=0;entryDx=0;entryDy=0;fontSize=36;" parent="1" source="165" target="160" edge="1">
                    <mxGeometry relative="1" as="geometry"/>
                </mxCell>
                <mxCell id="165" value="" style="rounded=1;whiteSpace=wrap;html=1;container=1;collapsible=0;absoluteArcSize=1;arcSize=20;childLayout=stackLayout;horizontal=1;horizontalStack=0;resizeParent=1;resizeParentMax=0;resizeLast=0;" parent="1" vertex="1">
                    <mxGeometry x="524" y="70" width="120" height="100" as="geometry"/>
                </mxCell>
                <mxCell id="166" value="Terminal" style="whiteSpace=wrap;connectable=0;html=1;shape=mxgraph.basic.rect;size=10;rectStyle=rounded;bottomRightStyle=square;bottomLeftStyle=square;part=1;" parent="165" vertex="1">
                    <mxGeometry width="120" height="20" as="geometry"/>
                </mxCell>
                <mxCell id="167" value="Denies authorization" style="shape=mxgraph.bpmn.task;part=1;taskMarker=abstract;connectable=0;whiteSpace=wrap;html=1;" parent="165" vertex="1">
                    <mxGeometry y="20" width="120" height="60" as="geometry"/>
                </mxCell>
                <mxCell id="168" value="Passenger" style="whiteSpace=wrap;connectable=0;html=1;shape=mxgraph.basic.rect;size=10;rectStyle=rounded;topRightStyle=square;topLeftStyle=square;fillColor=#C0C0C0;part=1;" parent="165" vertex="1">
                    <mxGeometry y="80" width="120" height="20" as="geometry"/>
                </mxCell>
                <mxCell id="507" value="&lt;h1&gt;Concurrency View - Ticket purchase&lt;/h1&gt;" style="text;strokeColor=none;align=left;fillColor=none;html=1;verticalAlign=middle;whiteSpace=wrap;rounded=0;" parent="1" vertex="1">
                    <mxGeometry x="30" y="20" width="670" height="30" as="geometry"/>
                </mxCell>
            </root>
        </mxGraphModel>
    </diagram>
</mxfile>